<svg width="370" height="49" viewBox="0 0 370 49" fill="none" xmlns="http://www.w3.org/2000/svg">
<path d="M0 3.49133C0 1.83448 1.34315 0.491333 3 0.491333H367C368.657 0.491333 370 1.83448 370 3.49133V48.4913H0V3.49133Z" fill="#3D4050" fill-opacity="0.85"/>
<path d="M11.647 31.4913V18.5943H15.76C16.552 18.5943 17.233 18.6723 17.803 18.8283C18.379 18.9843 18.85 19.2063 19.216 19.4943C19.588 19.7823 19.861 20.1363 20.035 20.5563C20.209 20.9703 20.296 21.4383 20.296 21.9603C20.296 22.2783 20.245 22.5843 20.143 22.8783C20.047 23.1723 19.9 23.4453 19.702 23.6973C19.504 23.9493 19.252 24.1743 18.946 24.3723C18.646 24.5703 18.292 24.7323 17.884 24.8583C18.826 25.0443 19.537 25.3833 20.017 25.8753C20.497 26.3673 20.737 27.0153 20.737 27.8193C20.737 28.3653 20.635 28.8633 20.431 29.3133C20.233 29.7633 19.939 30.1503 19.549 30.4743C19.165 30.7983 18.691 31.0503 18.127 31.2303C17.563 31.4043 16.921 31.4913 16.201 31.4913H11.647ZM13.384 25.6143V30.1053H16.174C16.672 30.1053 17.101 30.0483 17.461 29.9343C17.821 29.8203 18.115 29.6613 18.343 29.4573C18.577 29.2473 18.748 29.0013 18.856 28.7193C18.964 28.4313 19.018 28.1163 19.018 27.7743C19.018 27.1083 18.781 26.5833 18.307 26.1993C17.833 25.8093 17.122 25.6143 16.174 25.6143H13.384ZM13.384 24.3723H15.688C16.18 24.3723 16.606 24.3183 16.966 24.2103C17.332 24.1023 17.632 23.9523 17.866 23.7603C18.106 23.5683 18.283 23.3373 18.397 23.0673C18.511 22.7913 18.568 22.4913 18.568 22.1673C18.568 21.4053 18.34 20.8503 17.884 20.5023C17.428 20.1483 16.72 19.9713 15.76 19.9713H13.384V24.3723ZM24.2424 22.3743V25.9473H26.1864C26.8164 25.9473 27.3444 26.0223 27.7704 26.1723C28.2024 26.3223 28.5474 26.5233 28.8054 26.7753C29.0694 27.0273 29.2584 27.3183 29.3724 27.6483C29.4864 27.9783 29.5434 28.3203 29.5434 28.6743C29.5434 29.0823 29.4714 29.4603 29.3274 29.8083C29.1834 30.1503 28.9704 30.4473 28.6884 30.6993C28.4064 30.9453 28.0584 31.1403 27.6444 31.2843C27.2304 31.4223 26.7534 31.4913 26.2134 31.4913H22.7124V22.3743H24.2424ZM33.1524 22.3743V31.4913H31.5504V22.3743H33.1524ZM24.2424 27.1173V30.3213H26.2134C26.5374 30.3213 26.8164 30.2823 27.0504 30.2043C27.2904 30.1203 27.4884 30.0063 27.6444 29.8623C27.8004 29.7123 27.9174 29.5383 27.9954 29.3403C28.0734 29.1423 28.1124 28.9263 28.1124 28.6923C28.1124 28.4763 28.0794 28.2753 28.0134 28.0893C27.9474 27.8973 27.8364 27.7293 27.6804 27.5853C27.5304 27.4413 27.3324 27.3273 27.0864 27.2433C26.8404 27.1593 26.5404 27.1173 26.1864 27.1173H24.2424ZM40.4366 20.2323C39.8246 20.2863 39.2996 20.4213 38.8616 20.6373C38.4296 20.8533 38.0696 21.1473 37.7816 21.5193C37.4936 21.8913 37.2776 22.3353 37.1336 22.8513C36.9896 23.3613 36.9056 23.9403 36.8816 24.5883C37.0256 24.3003 37.2116 24.0423 37.4396 23.8143C37.6676 23.5803 37.9286 23.3823 38.2226 23.2203C38.5166 23.0523 38.8346 22.9263 39.1766 22.8423C39.5246 22.7523 39.8936 22.7073 40.2836 22.7073C40.8896 22.7073 41.4326 22.8153 41.9126 23.0313C42.3986 23.2413 42.8096 23.5413 43.1456 23.9313C43.4876 24.3213 43.7486 24.7923 43.9286 25.3443C44.1086 25.8903 44.1986 26.4963 44.1986 27.1623C44.1986 27.8403 44.0936 28.4553 43.8836 29.0073C43.6796 29.5533 43.3856 30.0213 43.0016 30.4113C42.6176 30.7953 42.1556 31.0923 41.6156 31.3023C41.0816 31.5123 40.4816 31.6173 39.8156 31.6173C39.2036 31.6173 38.6306 31.5153 38.0966 31.3113C37.5626 31.1073 37.1006 30.7713 36.7106 30.3033C36.3206 29.8353 36.0116 29.2203 35.7836 28.4583C35.5616 27.6903 35.4506 26.7453 35.4506 25.6233C35.4506 24.6633 35.5376 23.7813 35.7116 22.9773C35.8856 22.1733 36.1646 21.4743 36.5486 20.8803C36.9386 20.2863 37.4396 19.8093 38.0516 19.4493C38.6696 19.0833 39.4196 18.8613 40.3016 18.7833L43.5596 18.5043L43.6496 19.3323C43.6676 19.5183 43.6406 19.6743 43.5686 19.8003C43.4966 19.9263 43.3676 19.9953 43.1816 20.0073L40.4366 20.2323ZM39.8156 30.4293C40.7156 30.4293 41.3936 30.1443 41.8496 29.5743C42.3116 28.9983 42.5426 28.1943 42.5426 27.1623C42.5426 26.1363 42.3206 25.3353 41.8766 24.7593C41.4386 24.1833 40.7786 23.8953 39.8966 23.8953C39.4706 23.8953 39.0866 23.9643 38.7446 24.1023C38.4026 24.2343 38.1116 24.4293 37.8716 24.6873C37.6376 24.9453 37.4546 25.2633 37.3226 25.6413C37.1966 26.0193 37.1336 26.4513 37.1336 26.9373C37.1336 27.4833 37.1906 27.9723 37.3046 28.4043C37.4186 28.8363 37.5866 29.2023 37.8086 29.5023C38.0366 29.8023 38.3156 30.0333 38.6456 30.1953C38.9816 30.3513 39.3716 30.4293 39.8156 30.4293ZM49.9669 22.2303C50.5129 22.2303 51.0169 22.3233 51.4789 22.5093C51.9469 22.6893 52.3489 22.9533 52.6849 23.3013C53.0269 23.6433 53.2939 24.0693 53.4859 24.5793C53.6779 25.0833 53.7739 25.6593 53.7739 26.3073C53.7739 26.5593 53.7469 26.7273 53.6929 26.8113C53.6389 26.8953 53.5369 26.9373 53.3869 26.9373H47.2939C47.3059 27.5133 47.3839 28.0143 47.5279 28.4403C47.6719 28.8663 47.8699 29.2233 48.1219 29.5113C48.3739 29.7933 48.6739 30.0063 49.0219 30.1503C49.3699 30.2883 49.7599 30.3573 50.1919 30.3573C50.5939 30.3573 50.9389 30.3123 51.2269 30.2223C51.5209 30.1263 51.7729 30.0243 51.9829 29.9163C52.1929 29.8083 52.3669 29.7093 52.5049 29.6193C52.6489 29.5233 52.7719 29.4753 52.8739 29.4753C53.0059 29.4753 53.1079 29.5263 53.1799 29.6283L53.6299 30.2133C53.4319 30.4533 53.1949 30.6633 52.9189 30.8433C52.6429 31.0173 52.3459 31.1613 52.0279 31.2753C51.7159 31.3893 51.3919 31.4733 51.0559 31.5273C50.7199 31.5873 50.3869 31.6173 50.0569 31.6173C49.4269 31.6173 48.8449 31.5123 48.3109 31.3023C47.7829 31.0863 47.3239 30.7743 46.9339 30.3663C46.5499 29.9523 46.2499 29.4423 46.0339 28.8363C45.8179 28.2303 45.7099 27.5343 45.7099 26.7483C45.7099 26.1123 45.8059 25.5183 45.9979 24.9663C46.1959 24.4143 46.4779 23.9373 46.8439 23.5353C47.2099 23.1273 47.6569 22.8093 48.1849 22.5813C48.7129 22.3473 49.3069 22.2303 49.9669 22.2303ZM50.0029 23.4093C49.2289 23.4093 48.6199 23.6343 48.1759 24.0843C47.7319 24.5283 47.4559 25.1463 47.3479 25.9383H52.3339C52.3339 25.5663 52.2799 25.2273 52.1719 24.9213C52.0699 24.6093 51.9169 24.3423 51.7129 24.1203C51.5149 23.8923 51.2719 23.7183 50.9839 23.5983C50.6959 23.4723 50.3689 23.4093 50.0029 23.4093ZM55.7417 34.5783V22.3743H56.7047C56.9327 22.3743 57.0737 22.4853 57.1277 22.7073L57.2627 23.7873C57.6527 23.3133 58.0997 22.9323 58.6037 22.6443C59.1077 22.3563 59.6837 22.2123 60.3317 22.2123C60.8597 22.2123 61.3367 22.3143 61.7627 22.5183C62.1887 22.7163 62.5517 23.0133 62.8517 23.4093C63.1517 23.7993 63.3827 24.2853 63.5447 24.8673C63.7067 25.4493 63.7877 26.1183 63.7877 26.8743C63.7877 27.5463 63.6977 28.1733 63.5177 28.7553C63.3377 29.3313 63.0767 29.8323 62.7347 30.2583C62.3987 30.6783 61.9847 31.0113 61.4927 31.2573C61.0067 31.4973 60.4577 31.6173 59.8457 31.6173C59.2877 31.6173 58.8077 31.5243 58.4057 31.3383C58.0097 31.1523 57.6587 30.8883 57.3527 30.5463V34.5783H55.7417ZM59.8097 23.5083C59.2877 23.5083 58.8287 23.6283 58.4327 23.8683C58.0427 24.1083 57.6827 24.4473 57.3527 24.8853V29.2953C57.6407 29.6913 57.9587 29.9703 58.3067 30.1323C58.6607 30.2943 59.0537 30.3753 59.4857 30.3753C60.3377 30.3753 60.9917 30.0723 61.4477 29.4663C61.9037 28.8603 62.1317 27.9963 62.1317 26.8743C62.1317 26.2803 62.0777 25.7703 61.9697 25.3443C61.8677 24.9183 61.7177 24.5703 61.5197 24.3003C61.3217 24.0243 61.0787 23.8233 60.7907 23.6973C60.5027 23.5713 60.1757 23.5083 59.8097 23.5083ZM65.8139 31.5003V22.3833H67.4249V28.5753C67.4249 28.6893 67.4189 28.8153 67.4069 28.9533C67.3949 29.0853 67.3799 29.2203 67.3619 29.3583C67.4099 29.2383 67.4609 29.1303 67.5149 29.0343C67.5749 28.9383 67.6319 28.8483 67.6859 28.7643C67.6919 28.7523 67.7609 28.6593 67.8929 28.4853C68.0249 28.3053 68.1929 28.0743 68.3969 27.7923C68.6069 27.5043 68.8439 27.1833 69.1079 26.8293C69.3719 26.4693 69.6389 26.1033 69.9089 25.7313C70.5449 24.8613 71.2709 23.8773 72.0869 22.7793C72.1529 22.6833 72.2369 22.5933 72.3389 22.5093C72.4409 22.4193 72.5519 22.3743 72.6719 22.3743H73.6349V31.4913H72.0329V25.2993C72.0329 25.1853 72.0389 25.0593 72.0509 24.9213C72.0629 24.7833 72.0779 24.6453 72.0959 24.5073C72.0419 24.6273 71.9849 24.7383 71.9249 24.8403C71.8709 24.9363 71.8169 25.0263 71.7629 25.1103C71.7509 25.1223 71.6789 25.2183 71.5469 25.3983C71.4209 25.5783 71.2529 25.8093 71.0429 26.0913C70.8329 26.3733 70.5959 26.6943 70.3319 27.0543C70.0679 27.4083 69.8009 27.7713 69.5309 28.1433C68.8949 29.0133 68.1719 29.9973 67.3619 31.0953C67.2959 31.1913 67.2119 31.2843 67.1099 31.3743C67.0139 31.4583 66.9059 31.5003 66.7859 31.5003H65.8139ZM75.1414 22.3743H83.7454V23.5983H80.2444V31.4913H78.6424V23.5983H75.1414V22.3743ZM88.6388 22.2303C89.1848 22.2303 89.6888 22.3233 90.1508 22.5093C90.6188 22.6893 91.0208 22.9533 91.3568 23.3013C91.6988 23.6433 91.9658 24.0693 92.1578 24.5793C92.3498 25.0833 92.4458 25.6593 92.4458 26.3073C92.4458 26.5593 92.4188 26.7273 92.3648 26.8113C92.3108 26.8953 92.2088 26.9373 92.0588 26.9373H85.9658C85.9778 27.5133 86.0558 28.0143 86.1998 28.4403C86.3438 28.8663 86.5418 29.2233 86.7938 29.5113C87.0458 29.7933 87.3458 30.0063 87.6938 30.1503C88.0418 30.2883 88.4318 30.3573 88.8638 30.3573C89.2658 30.3573 89.6108 30.3123 89.8988 30.2223C90.1928 30.1263 90.4448 30.0243 90.6548 29.9163C90.8648 29.8083 91.0388 29.7093 91.1768 29.6193C91.3208 29.5233 91.4438 29.4753 91.5458 29.4753C91.6778 29.4753 91.7798 29.5263 91.8518 29.6283L92.3018 30.2133C92.1038 30.4533 91.8668 30.6633 91.5908 30.8433C91.3148 31.0173 91.0178 31.1613 90.6998 31.2753C90.3878 31.3893 90.0638 31.4733 89.7278 31.5273C89.3918 31.5873 89.0588 31.6173 88.7288 31.6173C88.0988 31.6173 87.5168 31.5123 86.9828 31.3023C86.4548 31.0863 85.9958 30.7743 85.6058 30.3663C85.2218 29.9523 84.9218 29.4423 84.7058 28.8363C84.4898 28.2303 84.3818 27.5343 84.3818 26.7483C84.3818 26.1123 84.4778 25.5183 84.6698 24.9663C84.8678 24.4143 85.1498 23.9373 85.5158 23.5353C85.8818 23.1273 86.3288 22.8093 86.8568 22.5813C87.3848 22.3473 87.9788 22.2303 88.6388 22.2303ZM88.6748 23.4093C87.9008 23.4093 87.2918 23.6343 86.8478 24.0843C86.4038 24.5283 86.1278 25.1463 86.0198 25.9383H91.0058C91.0058 25.5663 90.9518 25.2273 90.8438 24.9213C90.7418 24.6093 90.5888 24.3423 90.3848 24.1203C90.1868 23.8923 89.9438 23.7183 89.6558 23.5983C89.3678 23.4723 89.0408 23.4093 88.6748 23.4093ZM97.993 22.3743H106.597V23.5983H103.096V31.4913H101.494V23.5983H97.993V22.3743ZM108.124 31.5003V22.3833H109.735V28.5753C109.735 28.6893 109.729 28.8153 109.717 28.9533C109.705 29.0853 109.69 29.2203 109.672 29.3583C109.72 29.2383 109.771 29.1303 109.825 29.0343C109.885 28.9383 109.942 28.8483 109.996 28.7643C110.002 28.7523 110.071 28.6593 110.203 28.4853C110.335 28.3053 110.503 28.0743 110.707 27.7923C110.917 27.5043 111.154 27.1833 111.418 26.8293C111.682 26.4693 111.949 26.1033 112.219 25.7313C112.855 24.8613 113.581 23.8773 114.397 22.7793C114.463 22.6833 114.547 22.5933 114.649 22.5093C114.751 22.4193 114.862 22.3743 114.982 22.3743H115.945V31.4913H114.343V25.2993C114.343 25.1853 114.349 25.0593 114.361 24.9213C114.373 24.7833 114.388 24.6453 114.406 24.5073C114.352 24.6273 114.295 24.7383 114.235 24.8403C114.181 24.9363 114.127 25.0263 114.073 25.1103C114.061 25.1223 113.989 25.2183 113.857 25.3983C113.731 25.5783 113.563 25.8093 113.353 26.0913C113.143 26.3733 112.906 26.6943 112.642 27.0543C112.378 27.4083 112.111 27.7713 111.841 28.1433C111.205 29.0133 110.482 29.9973 109.672 31.0953C109.606 31.1913 109.522 31.2843 109.42 31.3743C109.324 31.4583 109.216 31.5003 109.096 31.5003H108.124ZM126.074 22.3743V31.4913H124.463V23.5983H120.089V31.4913H118.478V22.3743H126.074ZM139.571 23.9943C139.523 24.0603 139.475 24.1113 139.427 24.1473C139.379 24.1833 139.313 24.2013 139.229 24.2013C139.139 24.2013 139.04 24.1653 138.932 24.0933C138.824 24.0153 138.689 23.9313 138.527 23.8413C138.371 23.7513 138.176 23.6703 137.942 23.5983C137.714 23.5203 137.432 23.4813 137.096 23.4813C136.646 23.4813 136.25 23.5623 135.908 23.7243C135.566 23.8803 135.278 24.1083 135.044 24.4083C134.816 24.7083 134.642 25.0713 134.522 25.4973C134.408 25.9233 134.351 26.4003 134.351 26.9283C134.351 27.4803 134.414 27.9723 134.54 28.4043C134.666 28.8303 134.843 29.1903 135.071 29.4843C135.305 29.7723 135.584 29.9943 135.908 30.1503C136.238 30.3003 136.607 30.3753 137.015 30.3753C137.405 30.3753 137.726 30.3303 137.978 30.2403C138.23 30.1443 138.437 30.0393 138.599 29.9253C138.767 29.8113 138.905 29.7093 139.013 29.6193C139.127 29.5233 139.238 29.4753 139.346 29.4753C139.478 29.4753 139.58 29.5263 139.652 29.6283L140.102 30.2133C139.904 30.4593 139.679 30.6693 139.427 30.8433C139.175 31.0173 138.902 31.1643 138.608 31.2843C138.32 31.3983 138.017 31.4823 137.699 31.5363C137.381 31.5903 137.057 31.6173 136.727 31.6173C136.157 31.6173 135.626 31.5123 135.134 31.3023C134.648 31.0923 134.225 30.7893 133.865 30.3933C133.505 29.9913 133.223 29.4993 133.019 28.9173C132.815 28.3353 132.713 27.6723 132.713 26.9283C132.713 26.2503 132.806 25.6233 132.992 25.0473C133.184 24.4713 133.46 23.9763 133.82 23.5623C134.186 23.1423 134.633 22.8153 135.161 22.5813C135.695 22.3473 136.307 22.2303 136.997 22.2303C137.639 22.2303 138.203 22.3353 138.689 22.5453C139.181 22.7493 139.616 23.0403 139.994 23.4183L139.571 23.9943ZM141.822 31.5003V22.3833H143.433V28.5753C143.433 28.6893 143.427 28.8153 143.415 28.9533C143.403 29.0853 143.388 29.2203 143.37 29.3583C143.418 29.2383 143.469 29.1303 143.523 29.0343C143.583 28.9383 143.64 28.8483 143.694 28.7643C143.7 28.7523 143.769 28.6593 143.901 28.4853C144.033 28.3053 144.201 28.0743 144.405 27.7923C144.615 27.5043 144.852 27.1833 145.116 26.8293C145.38 26.4693 145.647 26.1033 145.917 25.7313C146.553 24.8613 147.279 23.8773 148.095 22.7793C148.161 22.6833 148.245 22.5933 148.347 22.5093C148.449 22.4193 148.56 22.3743 148.68 22.3743H149.643V31.4913H148.041V25.2993C148.041 25.1853 148.047 25.0593 148.059 24.9213C148.071 24.7833 148.086 24.6453 148.104 24.5073C148.05 24.6273 147.993 24.7383 147.933 24.8403C147.879 24.9363 147.825 25.0263 147.771 25.1103C147.759 25.1223 147.687 25.2183 147.555 25.3983C147.429 25.5783 147.261 25.8093 147.051 26.0913C146.841 26.3733 146.604 26.6943 146.34 27.0543C146.076 27.4083 145.809 27.7713 145.539 28.1433C144.903 29.0133 144.18 29.9973 143.37 31.0953C143.304 31.1913 143.22 31.2843 143.118 31.3743C143.022 31.4583 142.914 31.5003 142.794 31.5003H141.822ZM158.52 23.9943C158.472 24.0603 158.424 24.1113 158.376 24.1473C158.328 24.1833 158.262 24.2013 158.178 24.2013C158.088 24.2013 157.989 24.1653 157.881 24.0933C157.773 24.0153 157.638 23.9313 157.476 23.8413C157.32 23.7513 157.125 23.6703 156.891 23.5983C156.663 23.5203 156.381 23.4813 156.045 23.4813C155.595 23.4813 155.199 23.5623 154.857 23.7243C154.515 23.8803 154.227 24.1083 153.993 24.4083C153.765 24.7083 153.591 25.0713 153.471 25.4973C153.357 25.9233 153.3 26.4003 153.3 26.9283C153.3 27.4803 153.363 27.9723 153.489 28.4043C153.615 28.8303 153.792 29.1903 154.02 29.4843C154.254 29.7723 154.533 29.9943 154.857 30.1503C155.187 30.3003 155.556 30.3753 155.964 30.3753C156.354 30.3753 156.675 30.3303 156.927 30.2403C157.179 30.1443 157.386 30.0393 157.548 29.9253C157.716 29.8113 157.854 29.7093 157.962 29.6193C158.076 29.5233 158.187 29.4753 158.295 29.4753C158.427 29.4753 158.529 29.5263 158.601 29.6283L159.051 30.2133C158.853 30.4593 158.628 30.6693 158.376 30.8433C158.124 31.0173 157.851 31.1643 157.557 31.2843C157.269 31.3983 156.966 31.4823 156.648 31.5363C156.33 31.5903 156.006 31.6173 155.676 31.6173C155.106 31.6173 154.575 31.5123 154.083 31.3023C153.597 31.0923 153.174 30.7893 152.814 30.3933C152.454 29.9913 152.172 29.4993 151.968 28.9173C151.764 28.3353 151.662 27.6723 151.662 26.9283C151.662 26.2503 151.755 25.6233 151.941 25.0473C152.133 24.4713 152.409 23.9763 152.769 23.5623C153.135 23.1423 153.582 22.8153 154.11 22.5813C154.644 22.3473 155.256 22.2303 155.946 22.2303C156.588 22.2303 157.152 22.3353 157.638 22.5453C158.13 22.7493 158.565 23.0403 158.943 23.4183L158.52 23.9943ZM159.745 22.3743H168.349V23.5983H164.848V31.4913H163.246V23.5983H159.745V22.3743ZM173.242 22.2303C173.788 22.2303 174.292 22.3233 174.754 22.5093C175.222 22.6893 175.624 22.9533 175.96 23.3013C176.302 23.6433 176.569 24.0693 176.761 24.5793C176.953 25.0833 177.049 25.6593 177.049 26.3073C177.049 26.5593 177.022 26.7273 176.968 26.8113C176.914 26.8953 176.812 26.9373 176.662 26.9373H170.569C170.581 27.5133 170.659 28.0143 170.803 28.4403C170.947 28.8663 171.145 29.2233 171.397 29.5113C171.649 29.7933 171.949 30.0063 172.297 30.1503C172.645 30.2883 173.035 30.3573 173.467 30.3573C173.869 30.3573 174.214 30.3123 174.502 30.2223C174.796 30.1263 175.048 30.0243 175.258 29.9163C175.468 29.8083 175.642 29.7093 175.78 29.6193C175.924 29.5233 176.047 29.4753 176.149 29.4753C176.281 29.4753 176.383 29.5263 176.455 29.6283L176.905 30.2133C176.707 30.4533 176.47 30.6633 176.194 30.8433C175.918 31.0173 175.621 31.1613 175.303 31.2753C174.991 31.3893 174.667 31.4733 174.331 31.5273C173.995 31.5873 173.662 31.6173 173.332 31.6173C172.702 31.6173 172.12 31.5123 171.586 31.3023C171.058 31.0863 170.599 30.7743 170.209 30.3663C169.825 29.9523 169.525 29.4423 169.309 28.8363C169.093 28.2303 168.985 27.5343 168.985 26.7483C168.985 26.1123 169.081 25.5183 169.273 24.9663C169.471 24.4143 169.753 23.9373 170.119 23.5353C170.485 23.1273 170.932 22.8093 171.46 22.5813C171.988 22.3473 172.582 22.2303 173.242 22.2303ZM173.278 23.4093C172.504 23.4093 171.895 23.6343 171.451 24.0843C171.007 24.5283 170.731 25.1463 170.623 25.9383H175.609C175.609 25.5663 175.555 25.2273 175.447 24.9213C175.345 24.6093 175.192 24.3423 174.988 24.1203C174.79 23.8923 174.547 23.7183 174.259 23.5983C173.971 23.4723 173.644 23.4093 173.278 23.4093ZM183.76 27.4593C183.826 27.5973 183.889 27.7413 183.949 27.8913C184.015 28.0353 184.075 28.1823 184.129 28.3323C184.231 28.0263 184.351 27.7353 184.489 27.4593L187.279 22.7073C187.357 22.5633 187.45 22.4673 187.558 22.4193C187.666 22.3713 187.777 22.3473 187.891 22.3473H189.178V31.4913H187.729V25.4343C187.729 25.2723 187.738 25.0863 187.756 24.8763C187.78 24.6663 187.81 24.4713 187.846 24.2913L184.678 29.8443C184.63 29.9343 184.567 30.0063 184.489 30.0603C184.411 30.1143 184.321 30.1413 184.219 30.1413H184.039C183.937 30.1413 183.844 30.1143 183.76 30.0603C183.682 30.0063 183.619 29.9343 183.571 29.8443L180.349 24.2733C180.379 24.4533 180.406 24.6513 180.43 24.8673C180.454 25.0773 180.466 25.2663 180.466 25.4343V31.4913H179.017V22.3473H180.304C180.418 22.3473 180.529 22.3743 180.637 22.4283C180.745 22.4763 180.838 22.5693 180.916 22.7073L183.76 27.4593ZM193.238 22.3743V25.9473H195.182C195.812 25.9473 196.34 26.0223 196.766 26.1723C197.198 26.3223 197.543 26.5233 197.801 26.7753C198.065 27.0273 198.254 27.3183 198.368 27.6483C198.482 27.9783 198.539 28.3203 198.539 28.6743C198.539 29.0823 198.467 29.4603 198.323 29.8083C198.179 30.1503 197.966 30.4473 197.684 30.6993C197.402 30.9453 197.054 31.1403 196.64 31.2843C196.226 31.4223 195.749 31.4913 195.209 31.4913H191.708V22.3743H193.238ZM202.148 22.3743V31.4913H200.546V22.3743H202.148ZM193.238 27.1173V30.3213H195.209C195.533 30.3213 195.812 30.2823 196.046 30.2043C196.286 30.1203 196.484 30.0063 196.64 29.8623C196.796 29.7123 196.913 29.5383 196.991 29.3403C197.069 29.1423 197.108 28.9263 197.108 28.6923C197.108 28.4763 197.075 28.2753 197.009 28.0893C196.943 27.8973 196.832 27.7293 196.676 27.5853C196.526 27.4413 196.328 27.3273 196.082 27.2433C195.836 27.1593 195.536 27.1173 195.182 27.1173H193.238Z" fill="white"/>
<path d="M353.934 26.3485C353.934 26.4199 353.898 26.5003 353.844 26.5538L353.398 27.0003C353.344 27.0538 353.264 27.0895 353.193 27.0895C353.121 27.0895 353.041 27.0538 352.987 27.0003L349.478 23.4913L345.969 27.0003C345.916 27.0538 345.836 27.0895 345.764 27.0895C345.684 27.0895 345.612 27.0538 345.559 27.0003L345.112 26.5538C345.059 26.5003 345.023 26.4199 345.023 26.3485C345.023 26.277 345.059 26.1967 345.112 26.1431L349.273 21.9824C349.327 21.9288 349.407 21.8931 349.478 21.8931C349.55 21.8931 349.63 21.9288 349.684 21.9824L353.844 26.1431C353.898 26.1967 353.934 26.277 353.934 26.3485Z" fill="white"/>
</svg>
